<svg aria-hidden="true" style="position: absolute; width: 0; height: 0; overflow: hidden;" version="1.1" xmlns="http://www.w3.org/2000/svg" xmlns:xlink="http://www.w3.org/1999/xlink">
<defs>
<symbol id="icon-arrow-left-svg" viewBox="0 0 18 32">
<path d="M17.212 1.074c-0.669-0.669-1.755-0.669-2.424 0l-13.714 13.714c-0.669 0.669-0.669 1.755 0 2.424l13.714 13.714c0.669 0.669 1.755 0.669 2.424 0s0.669-1.755 0-2.424l-12.502-12.502 12.502-12.502c0.669-0.669 0.669-1.755 0-2.424z"></path>
</symbol>
<symbol id="icon-arrow-right-svg" viewBox="0 0 18 32">
<path d="M1.074 1.074c0.669-0.669 1.755-0.669 2.424 0l13.714 13.714c0.669 0.669 0.669 1.755 0 2.424l-13.714 13.714c-0.669 0.669-1.755 0.669-2.424 0s-0.669-1.755 0-2.424l12.502-12.502-12.502-12.502c-0.669-0.669-0.669-1.755 0-2.424z"></path>
</symbol>
<symbol id="icon-date-svg" viewBox="0 0 32 32">
<path d="M12.89 12.708v10.668h-1.35v-9.22h-0.024c-0.578 0.314-1.766 1.040-2.516 1.554v-1.39c0.841-0.59 1.717-1.129 2.624-1.612h1.266z"></path>
<path d="M18.672 23.578c-2.218 0-3.312-1.532-3.406-2.812h1.368c0.084 0.74 0.772 1.64 2.1 1.64 1.688 0 2.602-1.696 2.61-4.328h-0.054c-0.306 0.828-1.274 1.58-2.766 1.58-1.704 0-3.352-1.22-3.352-3.54 0-2.274 1.742-3.618 3.594-3.618 2.344 0 3.906 1.468 3.906 5.336 0 3.61-1.484 5.742-4 5.742zM18.804 18.492c1.25 0 2.368-0.968 2.368-2.36 0-1.664-1.054-2.46-2.32-2.46-1.172 0-2.336 0.774-2.336 2.42 0 1.634 1.086 2.4 2.288 2.4z"></path>
<path d="M7.707 0.293c-0.188-0.188-0.442-0.293-0.707-0.293s-0.52 0.105-0.707 0.293c-0.188 0.188-0.293 0.442-0.293 0.707v1h-2c-1.061 0-2.078 0.421-2.828 1.172s-1.172 1.767-1.172 2.828v22c0 1.061 0.421 2.078 1.172 2.828s1.768 1.172 2.828 1.172h24c1.061 0 2.078-0.421 2.828-1.172s1.172-1.767 1.172-2.828v-22c0-1.061-0.421-2.078-1.172-2.828s-1.767-1.172-2.828-1.172h-2v-1c0-0.265-0.105-0.52-0.293-0.707s-0.442-0.293-0.707-0.293c-0.265 0-0.519 0.105-0.707 0.293s-0.293 0.442-0.293 0.707v1h-16v-1c0-0.265-0.105-0.52-0.293-0.707zM2 28v-20h28v20c0 0.53-0.211 1.039-0.586 1.414s-0.884 0.586-1.414 0.586h-24c-0.53 0-1.039-0.211-1.414-0.586s-0.586-0.884-0.586-1.414z"></path>
</symbol>
<symbol id="icon-facebook-svg" viewBox="0 0 16 32">
<path d="M10.386 32v-13.872h4.717l0.706-5.926h-5.424v-3.783c0-1.716 0.44-2.885 2.714-2.885l2.9-0.001v-5.3c-0.502-0.072-2.223-0.233-4.226-0.233-4.182 0-7.045 2.761-7.045 7.833v4.37h-4.729v5.926h4.729v13.871l5.656 0z"></path>
</symbol>
<symbol id="icon-instagram-svg" viewBox="0 0 32 32">
<path d="M5.52 0.84c1.016-0.396 2.18-0.666 3.884-0.743 1.707-0.079 2.253-0.097 6.598-0.097s4.891 0.019 6.597 0.097c1.702 0.076 2.865 0.348 3.884 0.743 1.051 0.408 1.944 0.955 2.833 1.845s1.436 1.782 1.846 2.834c0.395 1.016 0.666 2.18 0.743 3.884 0.078 1.706 0.096 2.251 0.096 6.596s-0.018 4.889-0.096 6.596c-0.076 1.703-0.347 2.867-0.743 3.884-0.41 1.052-0.955 1.945-1.846 2.834s-1.782 1.436-2.834 1.846c-1.017 0.395-2.18 0.666-3.884 0.743-1.706 0.079-2.251 0.097-6.597 0.097s-4.89-0.019-6.597-0.097c-1.703-0.078-2.865-0.348-3.884-0.743-1.053-0.41-1.944-0.957-2.834-1.846s-1.437-1.782-1.846-2.834c-0.396-1.017-0.666-2.18-0.743-3.884-0.079-1.706-0.097-2.251-0.097-6.596s0.018-4.89 0.097-6.596c0.078-1.703 0.348-2.867 0.743-3.884 0.408-1.053 0.955-1.945 1.846-2.834s1.782-1.437 2.834-1.845zM15.999 10.667c-2.945 0-5.332 2.388-5.332 5.333s2.387 5.333 5.332 5.333c2.946 0 5.334-2.388 5.334-5.333s-2.388-5.333-5.334-5.333zM7.111 16c0-4.908 3.978-8.889 8.888-8.889s8.89 3.98 8.89 8.889c0 4.909-3.981 8.889-8.89 8.889s-8.888-3.98-8.888-8.889zM26.667 7.111c0.982 0 1.778-0.796 1.778-1.778s-0.796-1.778-1.778-1.778c-0.982 0-1.778 0.796-1.778 1.778s0.796 1.778 1.778 1.778z"></path>
</symbol>
<symbol id="icon-location-star-svg" viewBox="0 0 25 32">
<path d="M12.408 31.75c0 0-12.408-8.759-12.408-19.342 0-6.853 5.555-12.408 12.408-12.408s12.408 5.555 12.408 12.408c0 10.766-12.408 19.342-12.408 19.342zM14.047 10.518l-1.639-5.043-1.639 5.043h-5.303l4.29 3.117-1.639 5.043 4.29-3.117 4.29 3.117-1.639-5.043 4.29-3.117h-5.303z"></path>
</symbol>
<symbol id="icon-location-svg" viewBox="0 0 22 32">
<path d="M22.154 11.2c0-1.471-0.287-2.927-0.843-4.286s-1.373-2.594-2.401-3.634c-1.029-1.040-2.25-1.865-3.594-2.428s-2.784-0.853-4.239-0.853c-1.455 0-2.895 0.29-4.239 0.853s-2.565 1.388-3.594 2.428c-1.029 1.040-1.845 2.275-2.401 3.634s-0.843 2.815-0.843 4.286c0 2.219 0.649 4.283 1.749 6.024h-0.013c3.734 5.912 9.341 14.776 9.341 14.776l9.341-14.776h-0.011c1.14-1.798 1.746-3.888 1.747-6.024zM11.077 16c-1.259 0-2.467-0.506-3.357-1.406s-1.39-2.121-1.39-3.394c0-1.273 0.5-2.494 1.39-3.394s2.098-1.406 3.357-1.406c1.259 0 2.467 0.506 3.357 1.406s1.39 2.121 1.39 3.394c0 1.273-0.5 2.494-1.39 3.394s-2.098 1.406-3.357 1.406z"></path>
</symbol>
<symbol id="icon-logo-svg" viewBox="0 0 38 32">
<path d="M25.744 0c1.028 0 1.861 0.844 1.861 1.884v5.952h5.97c-0.027 3.73-0.016 8.549-0.007 12.929 0.004 1.859 0.007 3.639 0.008 5.221 1.883 1.109 3.619 2.601 4.824 4.944l-0.883-0.671c-2.053-1.559-5.394-2.901-8.43-3.385-1.755-0.281-5.143-0.010-6.937 0.552l-0.393 0.123 0.538 0.317c0.762 0.448 1.475 1.157 1.687 1.68 0.201 0.495 0.256 0.508 1.386 0.331 1.316-0.205 5.692-0.106 5.175 0.117-0.104 0.045-0.681 0.115-1.285 0.158-1.987 0.139-4.512 0.608-5.961 1.107-0.157 0.055-0.282-0.098-0.516-0.628-0.732-1.658-2.43-3.096-4.369-3.7l-0.528-0.165 0.616 0.063c0.652 0.066 1.95 0.309 2.38 0.445 0.219 0.070 0.242 0.043 0.155-0.186-0.466-1.243-1.816-2.665-3.259-3.435-1.29-0.688-2.422-0.931-4.046-0.866-1.257 0.049-2.768 0.344-2.768 0.538 0 0.048 0.090 0.403 0.198 0.79 0.35 1.24 0.511 2.558 0.37 3.039-0.079 0.271-0.135 0.346-0.144 0.192-0.027-0.485-0.71-1.869-1.353-2.737-1.877-2.538-4.856-3.853-8.728-3.853h-1.307c0.003-3.514 0.005-9.408 0.004-12.922h5.802v-5.951c0-1.040 0.833-1.884 1.861-1.884h18.076zM8.353 7.835v-5.257h16.705v5.257h-16.705zM16.408 11.581c-0.281 0.155-0.511 0.332-0.511 0.393s0.404 0.453 0.898 0.872c1.257 1.068 2.825 2.677 2.776 2.849-0.023 0.080-0.745 0.554-1.605 1.055l-1.563 0.912-1.349-0.139c-1.25-0.13-1.368-0.125-1.622 0.062-0.407 0.299-0.347 0.434 0.402 0.898 0.594 0.368 0.684 0.477 0.72 0.874 0.037 0.4 0.085 0.459 0.408 0.489 0.32 0.030 0.387 0.106 0.514 0.59 0.080 0.305 0.146 0.655 0.146 0.776 0 0.293 0.326 0.38 0.807 0.218 0.331-0.112 0.452-0.28 0.786-1.097l0.394-0.966 1.782-0.747c0.98-0.41 1.819-0.749 1.865-0.752 0.149-0.008 0.955 1.562 1.573 3.056 0.363 0.881 0.674 1.46 0.795 1.481 0.11 0.018 0.454-0.070 0.763-0.199l0.564-0.233-0.093-0.83c-0.090-0.805-0.081-0.837 0.27-1.061 0.471-0.302 0.455-0.473-0.074-0.809l-0.436-0.277 0.436-0.297c0.557-0.38 0.549-0.55-0.043-0.861-0.452-0.238-0.478-0.285-0.479-0.877l-0.002-0.624 1.591-0.762c1.692-0.811 2.506-1.429 2.959-2.246 0.144-0.262 0.225-0.574 0.178-0.693-0.123-0.315-0.963-0.47-1.823-0.338-0.981 0.152-1.491 0.344-2.952 1.112-0.704 0.37-1.349 0.673-1.433 0.673s-0.427-0.133-0.762-0.298c-0.5-0.245-0.623-0.372-0.689-0.711-0.091-0.466-0.336-0.592-0.847-0.433-0.515 0.158-0.607 0.136-0.607-0.149 0-0.142-0.082-0.347-0.183-0.46-0.161-0.179-0.241-0.187-0.686-0.069-0.473 0.128-0.549 0.112-1.29-0.261-0.433-0.217-0.85-0.396-0.927-0.398s-0.369 0.124-0.651 0.279z"></path>
<path d="M7.893 27.877c3.191 0.289 5.433 1.527 6.405 3.538 0.362 0.75 0.282 0.768-0.559 0.121-2.107-1.622-4.483-2.638-7.778-3.325-2.884-0.602 1.083-0.41 1.932-0.334z"></path>
</symbol>
<symbol id="icon-send-svg" viewBox="0 0 34 32">
<path d="M0 18.043l8.631 3.745 20.009-15.66-15.694 17.702v8.17l5.885-6.468 9.808 3.404 5.493-28.936-34.133 18.043z"></path>
</symbol>
<symbol id="icon-twiter-svg" viewBox="0 0 40 32">
<path d="M26.727 0.007v-0.007h1.875l0.685 0.135c0.457 0.088 0.872 0.202 1.244 0.345s0.733 0.308 1.082 0.497c0.349 0.189 0.665 0.382 0.949 0.579 0.281 0.194 0.534 0.4 0.757 0.618 0.221 0.22 0.566 0.277 1.035 0.17s0.974-0.255 1.515-0.444c0.541-0.189 1.076-0.403 1.605-0.639s0.851-0.387 0.967-0.451c0.113-0.066 0.173-0.102 0.18-0.107l0.007-0.011 0.036-0.018 0.036-0.018 0.072-0.035 0.007-0.011 0.022-0.014 0.007-0.011 0.036-0.011 0.036-0.007-0.007 0.053-0.011 0.053-0.018 0.053-0.018 0.053-0.018 0.036-0.018 0.035-0.018 0.053c-0.012 0.036-0.024 0.083-0.036 0.142s-0.126 0.296-0.343 0.71c-0.216 0.414-0.487 0.835-0.811 1.261s-0.616 0.748-0.873 0.966c-0.26 0.22-0.432 0.374-0.516 0.462-0.084 0.090-0.187 0.173-0.307 0.249l-0.181 0.117-0.072 0.036-0.007 0.011-0.011 0.007-0.011 0.007-0.007 0.011-0.036 0.018-0.036 0.018-0.007 0.011-0.011 0.007-0.011 0.007-0.007 0.011-0.007 0.011-0.011 0.007-0.011 0.007-0.007 0.011h0.18l1.010-0.213c0.673-0.142 1.317-0.314 1.93-0.515l1.136-0.373 0.072-0.036 0.036-0.018 0.036-0.018 0.072-0.011 0.072-0.007v0.071l-0.018 0.007-0.018 0.011-0.007 0.011-0.022 0.014-0.007 0.011-0.007 0.011-0.011 0.007-0.011 0.007-0.007 0.011-0.007 0.011-0.011 0.007-0.036 0.071-0.011 0.007c-0.005 0.007-0.158 0.208-0.458 0.604-0.301 0.398-0.463 0.599-0.487 0.604-0.024 0.007-0.058 0.043-0.101 0.107-0.041 0.066-0.295 0.33-0.765 0.792s-0.928 0.872-1.378 1.232c-0.452 0.362-0.68 0.807-0.685 1.335-0.007 0.526-0.035 1.12-0.083 1.783s-0.138 1.379-0.27 2.149c-0.132 0.77-0.337 1.64-0.613 2.611s-0.613 1.918-1.010 2.841-0.811 1.752-1.244 2.486c-0.433 0.734-0.83 1.355-1.19 1.865s-0.727 0.988-1.1 1.438c-0.373 0.45-0.844 0.957-1.414 1.52-0.573 0.561-0.885 0.869-0.938 0.923-0.055 0.052-0.291 0.246-0.707 0.582-0.414 0.338-0.858 0.677-1.335 1.016-0.474 0.336-0.909 0.617-1.306 0.842s-0.875 0.482-1.436 0.771c-0.558 0.291-1.161 0.561-1.811 0.81s-1.334 0.48-2.056 0.693c-0.721 0.213-1.419 0.379-2.092 0.497s-1.437 0.219-2.29 0.302l-1.28 0.124v0.018h-2.344v-0.018l-0.307-0.018c-0.204-0.012-0.373-0.024-0.505-0.035s-0.631-0.077-1.497-0.195c-0.866-0.118-1.545-0.237-2.038-0.355s-1.226-0.343-2.2-0.675-1.807-0.666-2.5-1.005c-0.69-0.336-1.123-0.549-1.298-0.639-0.173-0.087-0.368-0.196-0.584-0.327l-0.325-0.195-0.007-0.011-0.011-0.007-0.011-0.007-0.007-0.011-0.036-0.018-0.036-0.018-0.007-0.011-0.011-0.007-0.011-0.007-0.007-0.011-0.007-0.011-0.011-0.007h-0.018v-0.071l0.036 0.007 0.036 0.010 0.162 0.018c0.108 0.012 0.403 0.030 0.884 0.053s0.992 0.024 1.533 0 1.094-0.077 1.659-0.16c0.565-0.083 1.232-0.225 2.002-0.426s1.476-0.44 2.121-0.717c0.642-0.279 1.099-0.488 1.371-0.625 0.269-0.135 0.68-0.386 1.234-0.753l0.83-0.551 0.007-0.011 0.011-0.007 0.011-0.007 0.007-0.011 0.007-0.011 0.011-0.007 0.011-0.007 0.007-0.011 0.036-0.011 0.036-0.007 0.007-0.035 0.011-0.036 0.011-0.007 0.007-0.011-0.289-0.018c-0.192-0.012-0.379-0.024-0.559-0.036s-0.463-0.065-0.848-0.16c-0.385-0.095-0.799-0.237-1.244-0.426s-0.878-0.414-1.298-0.675-0.725-0.477-0.913-0.65c-0.185-0.17-0.426-0.412-0.721-0.724-0.293-0.315-0.548-0.638-0.765-0.97s-0.423-0.714-0.62-1.147l-0.299-0.646-0.018-0.053-0.018-0.053-0.011-0.035-0.007-0.036 0.054 0.007 0.054 0.011 0.397 0.053c0.265 0.036 0.679 0.047 1.244 0.036s0.956-0.036 1.172-0.071c0.216-0.036 0.349-0.059 0.397-0.071l0.072-0.018 0.18-0.036 0.007-0.011 0.011-0.007 0.011-0.007 0.007-0.011-0.072-0.018-0.289-0.071c-0.048-0.012-0.132-0.035-0.252-0.071s-0.445-0.166-0.974-0.391-0.95-0.444-1.262-0.657c-0.313-0.214-0.612-0.448-0.894-0.7-0.281-0.256-0.59-0.585-0.927-0.987s-0.637-0.87-0.902-1.403-0.463-1.042-0.595-1.527c-0.132-0.483-0.219-0.976-0.26-1.474l-0.065-0.746 0.036 0.007 0.036 0.011 0.144 0.071 0.559 0.249c0.373 0.166 0.836 0.308 1.389 0.426s0.884 0.184 0.992 0.195l0.162 0.018h0.325l-0.007-0.011-0.011-0.007-0.011-0.007-0.007-0.011-0.007-0.011-0.011-0.007-0.011-0.007-0.007-0.011-0.072-0.036-0.007-0.011-0.011-0.007-0.011-0.007-0.007-0.011-0.072-0.036-0.007-0.011c-0.007-0.005-0.111-0.081-0.31-0.227-0.197-0.149-0.404-0.342-0.62-0.579s-0.433-0.485-0.649-0.746c-0.217-0.261-0.41-0.54-0.577-0.835-0.168-0.296-0.346-0.672-0.534-1.129-0.185-0.455-0.326-0.913-0.422-1.374s-0.15-0.918-0.162-1.367 0-0.835 0.036-1.154c0.036-0.32 0.108-0.681 0.216-1.083s0.265-0.829 0.469-1.279l0.307-0.675 0.018-0.053 0.018-0.053 0.011-0.007 0.007-0.011 0.007-0.011 0.011-0.007 0.011 0.007 0.007 0.011 0.007 0.011 0.022 0.014 0.007 0.011 0.007 0.011 0.011 0.007 0.036 0.071 0.011 0.007 0.007 0.011 0.487 0.533c0.325 0.355 0.709 0.752 1.154 1.19s0.691 0.665 0.739 0.682c0.048 0.019 0.108 0.073 0.18 0.163 0.072 0.088 0.313 0.297 0.721 0.629s0.944 0.716 1.605 1.154 1.395 0.87 2.2 1.296c0.806 0.426 1.671 0.811 2.597 1.154s1.575 0.568 1.948 0.675c0.373 0.107 1.010 0.243 1.912 0.408s1.581 0.272 2.038 0.32c0.457 0.047 0.77 0.075 0.938 0.082l0.253 0.007-0.007-0.053-0.011-0.053-0.072-0.444c-0.048-0.296-0.072-0.71-0.072-1.243s0.042-1.024 0.126-1.474c0.084-0.45 0.211-0.906 0.379-1.367s0.333-0.832 0.494-1.112c0.163-0.277 0.377-0.593 0.642-0.948s0.607-0.722 1.028-1.101 0.902-0.716 1.443-1.012c0.541-0.296 1.040-0.521 1.497-0.675s0.842-0.255 1.154-0.302c0.313-0.047 0.469-0.075 0.469-0.082z"></path>
</symbol>
<symbol id="icon-burger-svg" viewBox="0 0 32 32">
<path d="M0 2h32v4h-32zM0 8h32v4h-32zM0 14h32v4h-32zM0 20h32v4h-32zM0 26h32v4h-32z"></path>
</symbol>
<symbol id="icon-cross-svg" viewBox="0 0 32 32">
<path d="M31.708 25.708c-0-0-0-0-0-0l-9.708-9.708 9.708-9.708c0-0 0-0 0-0 0.105-0.105 0.18-0.227 0.229-0.357 0.133-0.356 0.057-0.771-0.229-1.057l-4.586-4.586c-0.286-0.286-0.702-0.361-1.057-0.229-0.13 0.048-0.252 0.124-0.357 0.228 0 0-0 0-0 0l-9.708 9.708-9.708-9.708c-0-0-0-0-0-0-0.105-0.104-0.227-0.18-0.357-0.228-0.356-0.133-0.771-0.057-1.057 0.229l-4.586 4.586c-0.286 0.286-0.361 0.702-0.229 1.057 0.049 0.13 0.124 0.252 0.229 0.357 0 0 0 0 0 0l9.708 9.708-9.708 9.708c-0 0-0 0-0 0-0.104 0.105-0.18 0.227-0.229 0.357-0.133 0.355-0.057 0.771 0.229 1.057l4.586 4.586c0.286 0.286 0.702 0.361 1.057 0.229 0.13-0.049 0.252-0.124 0.357-0.229 0-0 0-0 0-0l9.708-9.708 9.708 9.708c0 0 0 0 0 0 0.105 0.105 0.227 0.18 0.357 0.229 0.356 0.133 0.771 0.057 1.057-0.229l4.586-4.586c0.286-0.286 0.362-0.702 0.229-1.057-0.049-0.13-0.124-0.252-0.229-0.357z"></path>
</symbol>
</defs>
</svg>
